<svg xmlns="http://www.w3.org/2000/svg" version="1.1" xmlns:xlink="http://www.w3.org/1999/xlink" xmlns:svgjs="http://svgjs.dev/svgjs" width="1500" height="1500" viewBox="0 0 1500 1500"><rect width="1500" height="1500" fill="#cb0003"></rect><g transform="matrix(0.6666666666666666,0,0,0.6666666666666666,249.39393939393938,325.7260585889183)"><svg viewBox="0 0 396 336" data-background-color="#cb0003" preserveAspectRatio="xMidYMid meet" height="1272" width="1500" xmlns="http://www.w3.org/2000/svg" xmlns:xlink="http://www.w3.org/1999/xlink"><g id="tight-bounds" transform="matrix(1,0,0,1,0.2400000000000091,0.10854282325880149)"><svg viewBox="0 0 395.52 238.89871846323982" height="238.89871846323982" width="395.52"><g><svg viewBox="0 0 395.52 238.89871846323982" height="238.89871846323982" width="395.52"><g><svg viewBox="0 0 395.52 238.89871846323982" height="238.89871846323982" width="395.52"><g><svg viewBox="0 0 395.52 238.89871846323982" height="238.89871846323982" width="395.52"><g id="textblocktransform"><svg viewBox="0 0 395.52 238.89871846323982" height="238.89871846323982" width="395.52" id="textblock"><g><rect width="395.52" height="225.8341049277098" fill="none" stroke-width="8.962371322224001" stroke="#d4dcf7" data-fill-palette-color="none" data-stroke-palette-color="tertiary"></rect><rect width="395.52" height="109.94880942577267" y="225.8341049277098" fill="#d4dcf7" data-fill-palette-color="tertiary"></rect></g><g><svg viewBox="0 0 395.52 224.8341049277098" height="224.8341049277098" width="395.52"><g transform="matrix(1,0,0,1,23.461705032,23.461705032)"><svg width="348.596589936" viewBox="0.45 -29.55 57.89 29.55" height="177.9106948637098" data-palette-color="#d4dcf7"><path d="M9.95 0L0.45 0 0.45-29.55 20.55-29.55 15.75-15.3 20.6 0 10.1 0 9.95-0.85 9.95 0ZM1.3-28.65L1.3-0.9 9.05-0.9 9.05-9.1 10.8-0.9 19.4-0.9Q18.85-2.65 18.25-4.45 17.65-6.25 17.1-8.1L17.1-8.1 14.85-15.3 19.35-28.65 10.45-28.65 9.05-21.8 9.05-28.65 1.3-28.65ZM8.65-1.35L1.75-1.35 1.75-28.2 8.65-28.2 8.65-17.25 10.8-28.2 18.75-28.2 14.4-15.3 18.85-1.35 11.15-1.35 8.65-13.45 8.65-1.35ZM38.85 0L21.15 0 21.15-29.55 38.85-29.55 38.85 0ZM22-28.65L22-0.9 29.7-0.9 29.7-12.05 30.35-12.05 30.35-0.9 38-0.9 38-28.65 30.35-28.65 30.35-18.25 29.7-18.25 29.7-28.65 22-28.65ZM29.25-1.35L22.45-1.35 22.45-28.2 29.25-28.2 29.25-17.8 30.8-17.8 30.8-28.2 37.6-28.2 37.6-1.35 30.8-1.35 30.8-12.5 29.25-12.5 29.25-1.35ZM50.59 0L39.75 0 39.75-29.55 51-29.55Q54.55-29.55 56.12-27.9 57.7-26.25 57.7-23.6L57.7-23.6 57.7-20.7Q57.7-17.75 56.15-16L56.15-16Q58.34-14.4 58.34-10.55L58.34-10.55 58.34-7.05Q58.34-3.05 56.3-1.53 54.25 0 50.59 0L50.59 0ZM40.59-28.65L40.59-0.9 50.59-0.9Q53.9-0.9 55.67-2.25 57.45-3.6 57.45-7.05L57.45-7.05 57.45-10.55Q57.45-14.95 54.45-15.85L54.45-15.85Q55.7-16.55 56.25-17.82 56.8-19.1 56.8-20.7L56.8-20.7 56.8-23.6Q56.8-25.85 55.45-27.25 54.09-28.65 51-28.65L51-28.65 40.59-28.65ZM50.59-1.35L41-1.35 41-28.2 51-28.2Q53.84-28.2 55.12-26.93 56.4-25.65 56.4-23.6L56.4-23.6 56.4-20.7Q56.4-18.8 55.52-17.43 54.65-16.05 52.59-15.8L52.59-15.8 52.59-15.7Q54.45-15.7 55.75-14.45 57.05-13.2 57.05-10.55L57.05-10.55 57.05-7.05Q57.05-3.8 55.32-2.58 53.59-1.35 50.59-1.35L50.59-1.35ZM48.15-24.4L48.15-17.15 48.7-17.15Q49.2-17.15 49.4-18.2L49.4-18.2Q49.5-18.75 49.55-19.38 49.59-20 49.59-20.75L49.59-20.75Q49.59-21.55 49.57-22.2 49.55-22.85 49.5-23.35L49.5-23.35Q49.45-24.4 48.8-24.4L48.8-24.4 48.15-24.4ZM48.7-17.6L48.59-17.6 48.59-23.9 48.8-23.9Q49.05-23.9 49.09-23L49.09-23Q49.15-22.5 49.15-21.95 49.15-21.4 49.15-20.75L49.15-20.75Q49.15-20.1 49.12-19.55 49.09-19 49.05-18.55L49.05-18.55Q49-17.6 48.7-17.6L48.7-17.6ZM48.15-12.65L48.15-5.05 48.8-5.05Q49.25-5.05 49.45-6.15L49.45-6.15Q49.59-7.3 49.59-8.85L49.59-8.85Q49.59-9.65 49.57-10.33 49.55-11 49.5-11.55L49.5-11.55Q49.45-12.65 48.8-12.65L48.8-12.65 48.15-12.65ZM48.8-5.5L48.59-5.5 48.59-12.2 48.8-12.2Q49.05-12.2 49.09-11.25L49.09-11.25Q49.15-10.75 49.15-10.15 49.15-9.55 49.15-8.85L49.15-8.85Q49.15-8.15 49.15-7.58 49.15-7 49.09-6.5L49.09-6.5Q49-5.5 48.8-5.5L48.8-5.5Z" opacity="1" transform="matrix(1,0,0,1,0,0)" fill="#d4dcf7" class="wordmark-text-0" data-fill-palette-color="primary" id="text-0"></path></svg></g></svg></g><g transform="matrix(1,0,0,1,75.54432,224.8341049277098)"><svg viewBox="0 0 244.43135999999998 14.064613535530016" height="14.064613535530016" width="244.43135999999998"><g transform="matrix(1,0,0,1,20,3.2)"><svg width="204.43135999999998" viewBox="2.98 -33.28 1154.47 43.290850697216996" height="7.664613535530016" data-palette-color="#cb0003"><path d="M25.46-28.98Q26.29-28.98 26.65-28.6 27-28.22 27-27.32L27-27.32 27-18.12Q27-17.26 26.59-16.89 26.17-16.53 25.17-16.53L25.17-16.53Q24.17-16.53 23.75-16.89 23.34-17.26 23.34-18.12L23.34-18.12 23.34-25.66 16.82-25.66 16.82-3.32 22.58-3.32Q23.41-3.32 23.77-2.94 24.12-2.56 24.12-1.66L24.12-1.66Q24.12-0.76 23.77-0.38 23.41 0 22.58 0L22.58 0 7.4 0Q6.57 0 6.21-0.38 5.86-0.76 5.86-1.66L5.86-1.66Q5.86-2.56 6.21-2.94 6.57-3.32 7.4-3.32L7.4-3.32 13.16-3.32 13.16-25.66 6.64-25.66 6.64-18.12Q6.64-17.26 6.23-16.89 5.81-16.53 4.81-16.53L4.81-16.53Q3.81-16.53 3.39-16.89 2.98-17.26 2.98-18.12L2.98-18.12 2.98-27.32Q2.98-28.22 3.33-28.6 3.69-28.98 4.52-28.98L4.52-28.98 25.46-28.98ZM52.83-22.56Q53.66-22.56 54.01-22.18 54.37-21.8 54.37-20.9L54.37-20.9 54.37-3.32 56.37-3.32Q57.2-3.32 57.55-2.94 57.91-2.56 57.91-1.66L57.91-1.66Q57.91-0.76 57.55-0.38 57.2 0 56.37 0L56.37 0 52.49 0Q51.66 0 51.3-0.37 50.95-0.73 50.95-1.64L50.95-1.64 50.95-4.59Q49.34-2.1 47.18-0.78 45.02 0.54 42.53 0.54L42.53 0.54Q40.31 0.54 38.67-0.43 37.03-1.39 36.15-3.2 35.28-5 35.28-7.42L35.28-7.42 35.28-19.24 33.27-19.24Q32.44-19.24 32.09-19.62 31.74-20 31.74-20.9L31.74-20.9Q31.74-21.8 32.09-22.18 32.44-22.56 33.27-22.56L33.27-22.56 37.4-22.56Q38.23-22.56 38.58-22.18 38.94-21.8 38.94-20.9L38.94-20.9 38.94-7.79Q38.94-5.62 39.94-4.35 40.94-3.08 42.89-3.08L42.89-3.08Q44.97-3.08 46.76-4.27 48.56-5.47 49.63-7.57 50.71-9.67 50.71-12.26L50.71-12.26 50.71-19.24 47.24-19.24Q46.41-19.24 46.05-19.62 45.7-20 45.7-20.9L45.7-20.9Q45.7-21.8 46.05-22.18 46.41-22.56 47.24-22.56L47.24-22.56 52.83-22.56ZM82.42-23.1Q84.32-23.1 85.98-22.12L85.98-22.12Q86.96-21.53 86.96-20.61L86.96-20.61Q86.96-20.17 86.74-19.58L86.74-19.58Q86.23-18.19 85.32-18.19L85.32-18.19Q84.96-18.19 84.64-18.38L84.64-18.38Q83.44-19.04 82.08-19.04L82.08-19.04Q79.88-19.04 77.66-17.52 75.43-15.99 74.01-13.45 72.58-10.91 72.58-8.06L72.58-8.06 72.58-3.32 80.81-3.32Q81.64-3.32 81.99-2.94 82.34-2.56 82.34-1.66L82.34-1.66Q82.34-0.76 81.99-0.38 81.64 0 80.81 0L80.81 0 65.08 0Q64.25 0 63.9-0.38 63.54-0.76 63.54-1.66L63.54-1.66Q63.54-2.56 63.9-2.94 64.25-3.32 65.08-3.32L65.08-3.32 68.92-3.32 68.92-19.24 65.82-19.24Q64.99-19.24 64.63-19.62 64.28-20 64.28-20.9L64.28-20.9Q64.28-21.8 64.63-22.18 64.99-22.56 65.82-22.56L65.82-22.56 70.8-22.56Q71.63-22.56 71.98-22.18 72.33-21.8 72.33-20.9L72.33-20.9 72.33-15.97Q73.51-18.12 75.17-19.73 76.83-21.34 78.71-22.22 80.59-23.1 82.42-23.1L82.42-23.1ZM107.68-23.1Q109.9-23.1 111.54-22.13 113.18-21.17 114.06-19.36 114.93-17.55 114.93-15.14L114.93-15.14 114.93-3.32 116.94-3.32Q117.77-3.32 118.12-2.94 118.47-2.56 118.47-1.66L118.47-1.66Q118.47-0.76 118.12-0.38 117.77 0 116.94 0L116.94 0 109.03 0Q108.2 0 107.84-0.38 107.49-0.76 107.49-1.66L107.49-1.66Q107.49-2.56 107.84-2.94 108.2-3.32 109.03-3.32L109.03-3.32 111.27-3.32 111.27-14.77Q111.27-16.94 110.27-18.21 109.27-19.48 107.32-19.48L107.32-19.48Q105.24-19.48 103.45-18.29 101.65-17.09 100.58-14.99 99.5-12.89 99.5-10.3L99.5-10.3 99.5-3.32 101.75-3.32Q102.58-3.32 102.93-2.94 103.29-2.56 103.29-1.66L103.29-1.66Q103.29-0.76 102.93-0.38 102.58 0 101.75 0L101.75 0 93.84 0Q93.01 0 92.66-0.38 92.3-0.76 92.3-1.66L92.3-1.66Q92.3-2.56 92.66-2.94 93.01-3.32 93.84-3.32L93.84-3.32 95.84-3.32 95.84-19.24 93.35-19.24Q92.52-19.24 92.17-19.62 91.81-20 91.81-20.9L91.81-20.9Q91.81-21.8 92.17-22.18 92.52-22.56 93.35-22.56L93.35-22.56 97.72-22.56Q98.55-22.56 98.91-22.18 99.26-21.8 99.26-20.9L99.26-20.9 99.26-17.97Q100.87-20.46 103.03-21.78 105.19-23.1 107.68-23.1L107.68-23.1ZM135.78-22.56Q136.61-22.56 136.97-22.18 137.32-21.8 137.32-20.9L137.32-20.9 137.32-3.32 145.16-3.32Q145.99-3.32 146.34-2.94 146.69-2.56 146.69-1.66L146.69-1.66Q146.69-0.76 146.34-0.38 145.99 0 145.16 0L145.16 0 126.02 0Q125.19 0 124.83-0.38 124.48-0.76 124.48-1.66L124.48-1.66Q124.48-2.56 124.83-2.94 125.19-3.32 126.02-3.32L126.02-3.32 133.66-3.32 133.66-19.24 127.48-19.24Q126.65-19.24 126.3-19.62 125.94-20 125.94-20.9L125.94-20.9Q125.94-21.8 126.3-22.18 126.65-22.56 127.48-22.56L127.48-22.56 135.78-22.56ZM135-33.28Q136.34-33.28 136.83-32.92 137.32-32.57 137.32-31.69L137.32-31.69 137.32-28.52Q137.32-27.64 136.83-27.28 136.34-26.93 135-26.93L135-26.93Q133.66-26.93 133.17-27.28 132.68-27.64 132.68-28.52L132.68-28.52 132.68-31.69Q132.68-32.57 133.17-32.92 133.66-33.28 135-33.28L135-33.28ZM167.64-23.1Q169.86-23.1 171.5-22.13 173.13-21.17 174.01-19.36 174.89-17.55 174.89-15.14L174.89-15.14 174.89-3.32 176.89-3.32Q177.72-3.32 178.08-2.94 178.43-2.56 178.43-1.66L178.43-1.66Q178.43-0.76 178.08-0.38 177.72 0 176.89 0L176.89 0 168.98 0Q168.15 0 167.8-0.38 167.44-0.76 167.44-1.66L167.44-1.66Q167.44-2.56 167.8-2.94 168.15-3.32 168.98-3.32L168.98-3.32 171.23-3.32 171.23-14.77Q171.23-16.94 170.23-18.21 169.23-19.48 167.27-19.48L167.27-19.48Q165.2-19.48 163.4-18.29 161.61-17.09 160.53-14.99 159.46-12.89 159.46-10.3L159.46-10.3 159.46-3.32 161.71-3.32Q162.54-3.32 162.89-2.94 163.24-2.56 163.24-1.66L163.24-1.66Q163.24-0.76 162.89-0.38 162.54 0 161.71 0L161.71 0 153.8 0Q152.97 0 152.61-0.38 152.26-0.76 152.26-1.66L152.26-1.66Q152.26-2.56 152.61-2.94 152.97-3.32 153.8-3.32L153.8-3.32 155.8-3.32 155.8-19.24 153.31-19.24Q152.48-19.24 152.12-19.62 151.77-20 151.77-20.9L151.77-20.9Q151.77-21.8 152.12-22.18 152.48-22.56 153.31-22.56L153.31-22.56 157.68-22.56Q158.51-22.56 158.86-22.18 159.22-21.8 159.22-20.9L159.22-20.9 159.22-17.97Q160.83-20.46 162.99-21.78 165.15-23.1 167.64-23.1L167.64-23.1ZM193.52-23.1Q195.91-23.1 197.93-22.02 199.96-20.95 201.5-18.95L201.5-18.95 201.5-20.9Q201.5-21.8 201.85-22.18 202.21-22.56 203.04-22.56L203.04-22.56 206.92-22.56Q207.75-22.56 208.1-22.18 208.46-21.8 208.46-20.9L208.46-20.9Q208.46-20 208.1-19.62 207.75-19.24 206.92-19.24L206.92-19.24 204.92-19.24 204.92 0.73Q204.92 3.64 203.68 5.73 202.45 7.81 200.11 8.91 197.76 10.01 194.47 10.01L194.47 10.01Q192.12 10.01 189.73 9.61 187.34 9.2 185.26 8.45L185.26 8.45Q184.31 8.11 184.31 7.15L184.31 7.15Q184.31 6.76 184.51 6.18L184.51 6.18Q184.95 4.83 185.9 4.83L185.9 4.83Q186.17 4.83 186.44 4.93L186.44 4.93Q188.34 5.62 190.44 6.01 192.54 6.4 194.47 6.4L194.47 6.4Q197.84 6.4 199.55 4.8 201.25 3.2 201.25 0.42L201.25 0.42 201.25-4.49Q198.23-0.68 193.52-0.68L193.52-0.68Q190.49-0.68 188.1-2.04 185.7-3.39 184.34-5.93 182.97-8.47 182.97-11.89L182.97-11.89Q182.97-15.31 184.34-17.85 185.7-20.39 188.1-21.74 190.49-23.1 193.52-23.1L193.52-23.1ZM193.76-19.48Q191.59-19.48 190.02-18.52 188.46-17.55 187.64-15.83 186.83-14.11 186.83-11.89L186.83-11.89Q186.83-9.67 187.64-7.95 188.46-6.23 190.02-5.26 191.59-4.3 193.76-4.3L193.76-4.3Q195.93-4.3 197.63-5.2 199.33-6.1 200.29-7.82 201.25-9.55 201.25-11.89L201.25-11.89Q201.25-14.23 200.29-15.95 199.33-17.68 197.63-18.58 195.93-19.48 193.76-19.48L193.76-19.48ZM262.9-28.98Q263.73-28.98 264.08-28.6 264.43-28.22 264.43-27.32L264.43-27.32Q264.43-26.42 264.08-26.04 263.73-25.66 262.9-25.66L262.9-25.66 256.65-25.66 256.65-3.32 263.38-3.32Q264.21-3.32 264.57-2.94 264.92-2.56 264.92-1.66L264.92-1.66Q264.92-0.76 264.57-0.38 264.21 0 263.38 0L263.38 0 246.24 0Q245.41 0 245.06-0.38 244.71-0.76 244.71-1.66L244.71-1.66Q244.71-2.56 245.06-2.94 245.41-3.32 246.24-3.32L246.24-3.32 252.98-3.32 252.98-25.66 246.73-25.66Q245.9-25.66 245.55-26.04 245.19-26.42 245.19-27.32L245.19-27.32Q245.19-28.22 245.55-28.6 245.9-28.98 246.73-28.98L246.73-28.98 262.9-28.98ZM293.31-32.03Q294.14-32.03 294.5-31.65 294.85-31.27 294.85-30.37L294.85-30.37 294.85-3.32 296.85-3.32Q297.68-3.32 298.04-2.94 298.39-2.56 298.39-1.66L298.39-1.66Q298.39-0.76 298.04-0.38 297.68 0 296.85 0L296.85 0 292.97 0Q292.14 0 291.79-0.38 291.43-0.76 291.43-1.66L291.43-1.66 291.43-3.61Q289.89-1.61 287.87-0.54 285.84 0.54 283.45 0.54L283.45 0.54Q280.42 0.54 278.03-0.89 275.64-2.32 274.27-4.99 272.9-7.67 272.9-11.28L272.9-11.28Q272.9-14.89 274.27-17.57 275.64-20.24 278.03-21.67 280.42-23.1 283.45-23.1L283.45-23.1Q288.04-23.1 291.19-19.07L291.19-19.07 291.19-28.71 287.23-28.71Q286.4-28.71 286.05-29.09 285.7-29.47 285.7-30.37L285.7-30.37Q285.7-31.27 286.05-31.65 286.4-32.03 287.23-32.03L287.23-32.03 293.31-32.03ZM283.69-19.48Q281.52-19.48 279.96-18.44 278.4-17.41 277.58-15.55 276.76-13.7 276.76-11.28L276.76-11.28Q276.76-8.86 277.58-7.01 278.4-5.15 279.96-4.11 281.52-3.08 283.69-3.08L283.69-3.08Q285.87-3.08 287.56-4.05 289.26-5.03 290.22-6.88 291.19-8.74 291.19-11.28L291.19-11.28Q291.19-13.82 290.22-15.67 289.26-17.53 287.56-18.51 285.87-19.48 283.69-19.48L283.69-19.48ZM314.99-23.1Q318.53-23.1 321.03-21.67 323.53-20.24 324.88-17.71 326.22-15.19 326.42-11.89L326.42-11.89Q326.42-11.06 326.06-10.72 325.71-10.38 324.88-10.38L324.88-10.38 307.2-10.38Q307.37-6.74 309.36-4.87 311.35-3 314.99-3L314.99-3Q317.24-3 319.43-3.58 321.63-4.15 323.29-5.1L323.29-5.1Q323.71-5.32 324.05-5.32L324.05-5.32Q324.9-5.32 325.44-4.03L325.44-4.03Q325.66-3.52 325.66-3.1L325.66-3.1Q325.66-2.12 324.58-1.59L324.58-1.59Q322.7-0.63 320.14-0.05 317.58 0.54 314.99 0.54L314.99 0.54Q311.3 0.54 308.69-0.88 306.08-2.29 304.71-4.96 303.34-7.62 303.34-11.28L303.34-11.28Q303.34-14.77 304.83-17.46 306.32-20.14 308.96-21.62 311.6-23.1 314.99-23.1L314.99-23.1ZM314.99-19.56Q311.99-19.56 310.02-18.03 308.06-16.5 307.45-13.79L307.45-13.79 322.36-13.79Q321.85-16.6 320.01-18.08 318.16-19.56 314.99-19.56L314.99-19.56ZM344.85-23.1Q349.44-23.1 351.73-21.04 354.03-18.99 354.03-14.97L354.03-14.97 354.03-5.25Q354.03-3.32 355.64-3.32L355.64-3.32 356.49-3.32Q357.32-3.32 357.68-2.94 358.03-2.56 358.03-1.66L358.03-1.66Q358.03-0.76 357.68-0.38 357.32 0 356.49 0L356.49 0 354.93 0Q353.34 0 352.21-0.79 351.07-1.59 350.73-3.13L350.73-3.13Q348.73-1.37 346.4-0.42 344.06 0.54 341.45 0.54L341.45 0.54Q338.99 0.54 337.09-0.31 335.2-1.15 334.13-2.76 333.05-4.37 333.05-6.59L333.05-6.59Q333.05-10.45 335.81-12.29 338.57-14.14 342.94-14.14L342.94-14.14Q346.82-14.14 350.36-12.89L350.36-12.89 350.36-14.97Q350.36-17.33 349.03-18.44 347.7-19.56 344.75-19.56L344.75-19.56Q342.92-19.56 340.94-19.04 338.96-18.53 337.18-17.63L337.18-17.63Q336.76-17.41 336.42-17.41L336.42-17.41Q335.62-17.41 335.08-18.58L335.08-18.58Q334.81-19.17 334.81-19.56L334.81-19.56Q334.81-20.41 335.71-20.87L335.71-20.87Q337.77-21.95 340.12-22.52 342.48-23.1 344.85-23.1L344.85-23.1ZM342.97-10.69Q340.16-10.69 338.53-9.73 336.91-8.76 336.91-6.67L336.91-6.67Q336.91-4.88 338.14-3.89 339.38-2.91 341.6-2.91L341.6-2.91Q346.46-2.91 350.36-6.93L350.36-6.93 350.36-9.59Q348.7-10.13 346.8-10.41 344.89-10.69 342.97-10.69L342.97-10.69ZM382.42-23.1Q383.42-23.1 383.83-22.73 384.25-22.36 384.25-21.51L384.25-21.51 384.25-16.87Q384.25-16.02 383.83-15.65 383.42-15.28 382.42-15.28L382.42-15.28Q381.59-15.28 381.24-15.92L381.24-15.92Q380.19-17.92 378.19-18.74 376.19-19.56 373.11-19.56L373.11-19.56Q370.75-19.56 369.42-18.71 368.09-17.87 368.09-16.36L368.09-16.36Q368.09-15.58 368.59-15.09 369.09-14.6 370.06-14.28L370.06-14.28Q370.87-14.01 371.93-13.87 372.99-13.72 374.68-13.55L374.68-13.55Q377.05-13.28 378.5-13.05 379.95-12.82 381.24-12.35L381.24-12.35Q383.2-11.65 384.28-10.3 385.37-8.96 385.37-6.76L385.37-6.76Q385.37-4.57 384.26-2.92 383.15-1.27 381.01-0.37 378.88 0.54 375.9 0.54L375.9 0.54Q373.26 0.54 371.26-0.2 369.26-0.93 367.77-2.42L367.77-2.42 367.77-1.05Q367.77-0.2 367.35 0.17 366.94 0.54 365.94 0.54L365.94 0.54Q364.94 0.54 364.52 0.17 364.11-0.2 364.11-1.05L364.11-1.05 364.11-6.91Q364.11-7.76 364.52-8.13 364.94-8.5 365.94-8.5L365.94-8.5Q366.45-8.5 366.74-8.26 367.04-8.03 367.26-7.5L367.26-7.5Q368.13-5.15 370.18-4.08 372.24-3 375.65-3L375.65-3Q378.49-3 380-4.03 381.51-5.05 381.51-6.76L381.51-6.76Q381.51-7.59 380.98-8.13 380.44-8.67 379.44-9.01L379.44-9.01Q378.58-9.28 377.47-9.46 376.36-9.64 374.65-9.81L374.65-9.81Q372.36-10.06 370.82-10.33 369.28-10.6 367.99-11.11L367.99-11.11Q366.21-11.82 365.22-13.07 364.23-14.33 364.23-16.36L364.23-16.36Q364.23-18.48 365.34-20.01 366.45-21.53 368.41-22.31 370.38-23.1 372.87-23.1L372.87-23.1Q375.24-23.1 377.2-22.39 379.17-21.68 380.59-20.41L380.59-20.41 380.59-21.51Q380.59-22.36 381-22.73 381.42-23.1 382.42-23.1L382.42-23.1ZM435.56-22.56Q436.39-22.56 436.74-22.18 437.1-21.8 437.1-20.9L437.1-20.9 437.1-3.32 444.94-3.32Q445.77-3.32 446.12-2.94 446.47-2.56 446.47-1.66L446.47-1.66Q446.47-0.76 446.12-0.38 445.77 0 444.94 0L444.94 0 425.8 0Q424.97 0 424.61-0.38 424.26-0.76 424.26-1.66L424.26-1.66Q424.26-2.56 424.61-2.94 424.97-3.32 425.8-3.32L425.8-3.32 433.44-3.32 433.44-19.24 427.26-19.24Q426.43-19.24 426.08-19.62 425.72-20 425.72-20.9L425.72-20.9Q425.72-21.8 426.08-22.18 426.43-22.56 427.26-22.56L427.26-22.56 435.56-22.56ZM434.78-33.28Q436.12-33.28 436.61-32.92 437.1-32.57 437.1-31.69L437.1-31.69 437.1-28.52Q437.1-27.64 436.61-27.28 436.12-26.93 434.78-26.93L434.78-26.93Q433.44-26.93 432.95-27.28 432.46-27.64 432.46-28.52L432.46-28.52 432.46-31.69Q432.46-32.57 432.95-32.92 433.44-33.28 434.78-33.28L434.78-33.28ZM467.42-23.1Q469.64-23.1 471.28-22.13 472.91-21.17 473.79-19.36 474.67-17.55 474.67-15.14L474.67-15.14 474.67-3.32 476.67-3.32Q477.5-3.32 477.86-2.94 478.21-2.56 478.21-1.66L478.21-1.66Q478.21-0.76 477.86-0.38 477.5 0 476.67 0L476.67 0 468.76 0Q467.93 0 467.58-0.38 467.22-0.76 467.22-1.66L467.22-1.66Q467.22-2.56 467.58-2.94 467.93-3.32 468.76-3.32L468.76-3.32 471.01-3.32 471.01-14.77Q471.01-16.94 470.01-18.21 469.01-19.48 467.05-19.48L467.05-19.48Q464.98-19.48 463.18-18.29 461.39-17.09 460.31-14.99 459.24-12.89 459.24-10.3L459.24-10.3 459.24-3.32 461.49-3.32Q462.32-3.32 462.67-2.94 463.02-2.56 463.02-1.66L463.02-1.66Q463.02-0.76 462.67-0.38 462.32 0 461.49 0L461.49 0 453.58 0Q452.75 0 452.39-0.38 452.04-0.76 452.04-1.66L452.04-1.66Q452.04-2.56 452.39-2.94 452.75-3.32 453.58-3.32L453.58-3.32 455.58-3.32 455.58-19.24 453.09-19.24Q452.26-19.24 451.9-19.62 451.55-20 451.55-20.9L451.55-20.9Q451.55-21.8 451.9-22.18 452.26-22.56 453.09-22.56L453.09-22.56 457.46-22.56Q458.29-22.56 458.64-22.18 459-21.8 459-20.9L459-20.9 459-17.97Q460.61-20.46 462.77-21.78 464.93-23.1 467.42-23.1L467.42-23.1ZM490.83-29.52Q491.83-29.52 492.25-29.15 492.66-28.78 492.66-27.93L492.66-27.93 492.66-20.61 502.69-20.61Q503.52-20.61 503.88-20.23 504.23-19.85 504.23-18.95L504.23-18.95Q504.23-18.04 503.88-17.66 503.52-17.29 502.69-17.29L502.69-17.29 492.66-17.29 492.66-8.4Q492.66-5.62 493.62-4.32 494.59-3.03 496.98-3.03L496.98-3.03Q498.62-3.03 500.42-3.69 502.23-4.35 503.92-5.44L503.92-5.44Q504.26-5.69 504.67-5.69L504.67-5.69Q505.5-5.69 506.09-4.57L506.09-4.57Q506.41-3.93 506.41-3.47L506.41-3.47Q506.41-2.69 505.6-2.2L505.6-2.2Q503.7-1 501.35-0.23 499.01 0.54 496.98 0.54L496.98 0.54Q492.83 0.54 490.91-1.62 489-3.78 489-8.08L489-8.08 489-17.29 484.04-17.29Q483.21-17.29 482.86-17.66 482.5-18.04 482.5-18.95L482.5-18.95Q482.5-19.85 482.86-20.23 483.21-20.61 484.04-20.61L484.04-20.61 489-20.61 489-27.93Q489-28.78 489.41-29.15 489.83-29.52 490.83-29.52L490.83-29.52ZM524.62-23.1Q527.96-23.1 530.65-21.58 533.33-20.07 534.86-17.37 536.38-14.67 536.38-11.28L536.38-11.28Q536.38-7.89 534.86-5.19 533.33-2.49 530.65-0.98 527.96 0.54 524.62 0.54L524.62 0.54Q521.27 0.54 518.59-0.98 515.9-2.49 514.37-5.19 512.85-7.89 512.85-11.28L512.85-11.28Q512.85-14.67 514.37-17.37 515.9-20.07 518.59-21.58 521.27-23.1 524.62-23.1L524.62-23.1ZM524.62-19.48Q522.25-19.48 520.45-18.44 518.66-17.41 517.68-15.54 516.71-13.67 516.71-11.28L516.71-11.28Q516.71-8.89 517.68-7.02 518.66-5.15 520.45-4.11 522.25-3.08 524.62-3.08L524.62-3.08Q526.98-3.08 528.78-4.11 530.57-5.15 531.55-7.02 532.53-8.89 532.53-11.28L532.53-11.28Q532.53-13.67 531.55-15.54 530.57-17.41 528.78-18.44 526.98-19.48 524.62-19.48L524.62-19.48ZM592.65-28.98Q593.48-28.98 593.84-28.6 594.19-28.22 594.19-27.32L594.19-27.32Q594.19-26.42 593.84-26.04 593.48-25.66 592.65-25.66L592.65-25.66 586.4-25.66 586.4-3.32 593.14-3.32Q593.97-3.32 594.33-2.94 594.68-2.56 594.68-1.66L594.68-1.66Q594.68-0.76 594.33-0.38 593.97 0 593.14 0L593.14 0 576 0Q575.17 0 574.82-0.38 574.46-0.76 574.46-1.66L574.46-1.66Q574.46-2.56 574.82-2.94 575.17-3.32 576-3.32L576-3.32 582.74-3.32 582.74-25.66 576.49-25.66Q575.66-25.66 575.31-26.04 574.95-26.42 574.95-27.32L574.95-27.32Q574.95-28.22 575.31-28.6 575.66-28.98 576.49-28.98L576.49-28.98 592.65-28.98ZM617.31-23.1Q619.53-23.1 621.17-22.13 622.8-21.17 623.68-19.36 624.56-17.55 624.56-15.14L624.56-15.14 624.56-3.32 626.56-3.32Q627.39-3.32 627.75-2.94 628.1-2.56 628.1-1.66L628.1-1.66Q628.1-0.76 627.75-0.38 627.39 0 626.56 0L626.56 0 618.65 0Q617.82 0 617.47-0.38 617.11-0.76 617.11-1.66L617.11-1.66Q617.11-2.56 617.47-2.94 617.82-3.32 618.65-3.32L618.65-3.32 620.9-3.32 620.9-14.77Q620.9-16.94 619.9-18.21 618.9-19.48 616.94-19.48L616.94-19.48Q614.87-19.48 613.07-18.29 611.28-17.09 610.2-14.99 609.13-12.89 609.13-10.3L609.13-10.3 609.13-3.32 611.38-3.32Q612.21-3.32 612.56-2.94 612.91-2.56 612.91-1.66L612.91-1.66Q612.91-0.76 612.56-0.38 612.21 0 611.38 0L611.38 0 603.47 0Q602.64 0 602.28-0.38 601.93-0.76 601.93-1.66L601.93-1.66Q601.93-2.56 602.28-2.94 602.64-3.32 603.47-3.32L603.47-3.32 605.47-3.32 605.47-19.24 602.98-19.24Q602.15-19.24 601.79-19.62 601.44-20 601.44-20.9L601.44-20.9Q601.44-21.8 601.79-22.18 602.15-22.56 602.98-22.56L602.98-22.56 607.35-22.56Q608.18-22.56 608.53-22.18 608.89-21.8 608.89-20.9L608.89-20.9 608.89-17.97Q610.5-20.46 612.66-21.78 614.82-23.1 617.31-23.1L617.31-23.1ZM640.72-29.52Q641.72-29.52 642.13-29.15 642.55-28.78 642.55-27.93L642.55-27.93 642.55-20.61 652.58-20.61Q653.41-20.61 653.77-20.23 654.12-19.85 654.12-18.95L654.12-18.95Q654.12-18.04 653.77-17.66 653.41-17.29 652.58-17.29L652.58-17.29 642.55-17.29 642.55-8.4Q642.55-5.62 643.51-4.32 644.48-3.03 646.87-3.03L646.87-3.03Q648.51-3.03 650.31-3.69 652.12-4.35 653.8-5.44L653.8-5.44Q654.15-5.69 654.56-5.69L654.56-5.69Q655.39-5.69 655.98-4.57L655.98-4.57Q656.3-3.93 656.3-3.47L656.3-3.47Q656.3-2.69 655.49-2.2L655.49-2.2Q653.59-1 651.24-0.23 648.9 0.54 646.87 0.54L646.87 0.54Q642.72 0.54 640.8-1.62 638.89-3.78 638.89-8.08L638.89-8.08 638.89-17.29 633.93-17.29Q633.1-17.29 632.75-17.66 632.39-18.04 632.39-18.95L632.39-18.95Q632.39-19.85 632.75-20.23 633.1-20.61 633.93-20.61L633.93-20.61 638.89-20.61 638.89-27.93Q638.89-28.78 639.3-29.15 639.72-29.52 640.72-29.52L640.72-29.52ZM674.73-23.1Q678.27-23.1 680.77-21.67 683.27-20.24 684.61-17.71 685.96-15.19 686.15-11.89L686.15-11.89Q686.15-11.06 685.8-10.72 685.44-10.38 684.61-10.38L684.61-10.38 666.94-10.38Q667.11-6.74 669.1-4.87 671.09-3 674.73-3L674.73-3Q676.97-3 679.17-3.58 681.37-4.15 683.03-5.1L683.03-5.1Q683.44-5.32 683.78-5.32L683.78-5.32Q684.64-5.32 685.17-4.03L685.17-4.03Q685.39-3.52 685.39-3.1L685.39-3.1Q685.39-2.12 684.32-1.59L684.32-1.59Q682.44-0.63 679.88-0.05 677.31 0.54 674.73 0.54L674.73 0.54Q671.04 0.54 668.43-0.88 665.81-2.29 664.45-4.96 663.08-7.62 663.08-11.28L663.08-11.28Q663.08-14.77 664.57-17.46 666.06-20.14 668.69-21.62 671.33-23.1 674.73-23.1L674.73-23.1ZM674.73-19.56Q671.72-19.56 669.76-18.03 667.79-16.5 667.18-13.79L667.18-13.79 682.1-13.79Q681.59-16.6 679.74-18.08 677.9-19.56 674.73-19.56L674.73-19.56ZM711.95-23.1Q713.86-23.1 715.52-22.12L715.52-22.12Q716.5-21.53 716.5-20.61L716.5-20.61Q716.5-20.17 716.28-19.58L716.28-19.58Q715.76-18.19 714.86-18.19L714.86-18.19Q714.49-18.19 714.18-18.38L714.18-18.38Q712.98-19.04 711.61-19.04L711.61-19.04Q709.42-19.04 707.19-17.52 704.97-15.99 703.54-13.45 702.12-10.91 702.12-8.06L702.12-8.06 702.12-3.32 710.34-3.32Q711.17-3.32 711.53-2.94 711.88-2.56 711.88-1.66L711.88-1.66Q711.88-0.76 711.53-0.38 711.17 0 710.34 0L710.34 0 694.62 0Q693.79 0 693.44-0.38 693.08-0.76 693.08-1.66L693.08-1.66Q693.08-2.56 693.44-2.94 693.79-3.32 694.62-3.32L694.62-3.32 698.45-3.32 698.45-19.24 695.35-19.24Q694.52-19.24 694.17-19.62 693.81-20 693.81-20.9L693.81-20.9Q693.81-21.8 694.17-22.18 694.52-22.56 695.35-22.56L695.35-22.56 700.33-22.56Q701.16-22.56 701.52-22.18 701.87-21.8 701.87-20.9L701.87-20.9 701.87-15.97Q703.04-18.12 704.7-19.73 706.36-21.34 708.24-22.22 710.12-23.1 711.95-23.1L711.95-23.1ZM734.56-23.1Q739.15-23.1 741.44-21.04 743.74-18.99 743.74-14.97L743.74-14.97 743.74-5.25Q743.74-3.32 745.35-3.32L745.35-3.32 746.2-3.32Q747.03-3.32 747.39-2.94 747.74-2.56 747.74-1.66L747.74-1.66Q747.74-0.76 747.39-0.38 747.03 0 746.2 0L746.2 0 744.64 0Q743.06 0 741.92-0.79 740.78-1.59 740.44-3.13L740.44-3.13Q738.44-1.37 736.11-0.42 733.78 0.54 731.17 0.54L731.17 0.54Q728.7 0.54 726.81-0.31 724.92-1.15 723.84-2.76 722.77-4.37 722.77-6.59L722.77-6.59Q722.77-10.45 725.53-12.29 728.28-14.14 732.65-14.14L732.65-14.14Q736.54-14.14 740.08-12.89L740.08-12.89 740.08-14.97Q740.08-17.33 738.75-18.44 737.42-19.56 734.46-19.56L734.46-19.56Q732.63-19.56 730.65-19.04 728.68-18.53 726.89-17.63L726.89-17.63Q726.48-17.41 726.14-17.41L726.14-17.41Q725.33-17.41 724.79-18.58L724.79-18.58Q724.52-19.17 724.52-19.56L724.52-19.56Q724.52-20.41 725.43-20.87L725.43-20.87Q727.48-21.95 729.84-22.52 732.19-23.1 734.56-23.1L734.56-23.1ZM732.68-10.69Q729.87-10.69 728.25-9.73 726.62-8.76 726.62-6.67L726.62-6.67Q726.62-4.88 727.86-3.89 729.09-2.91 731.31-2.91L731.31-2.91Q736.17-2.91 740.08-6.93L740.08-6.93 740.08-9.59Q738.42-10.13 736.51-10.41 734.61-10.69 732.68-10.69L732.68-10.69ZM773.23-23.1Q774.23-23.1 774.64-22.73 775.06-22.36 775.06-21.51L775.06-21.51 775.06-14.43Q775.06-13.57 774.64-13.21 774.23-12.84 773.23-12.84L773.23-12.84Q772.23-12.84 771.81-13.21 771.4-13.57 771.4-14.43L771.4-14.43Q771.4-15.92 770.62-17.07 769.83-18.21 768.28-18.85 766.73-19.48 764.56-19.48L764.56-19.48Q762.22-19.48 760.36-18.43 758.51-17.38 757.46-15.5 756.41-13.62 756.41-11.28L756.41-11.28Q756.41-8.91 757.4-7.04 758.38-5.18 760.18-4.13 761.97-3.08 764.32-3.08L764.32-3.08Q766.56-3.08 768.68-3.77 770.79-4.47 772.52-5.79L772.52-5.79Q773.03-6.18 773.47-6.18L773.47-6.18Q774.18-6.18 774.79-5.18L774.79-5.18Q775.16-4.57 775.16-4L775.16-4Q775.16-3.15 774.38-2.59L774.38-2.59Q772.42-1.12 769.76-0.29 767.1 0.54 764.32 0.54L764.32 0.54Q760.83 0.54 758.15-1 755.48-2.54 754.01-5.22 752.55-7.91 752.55-11.28L752.55-11.28Q752.55-14.65 754.04-17.33 755.53-20.02 758.2-21.56 760.87-23.1 764.32-23.1L764.32-23.1Q766.49-23.1 768.31-22.3 770.13-21.51 771.4-20.04L771.4-20.04 771.4-21.51Q771.4-22.36 771.81-22.73 772.23-23.1 773.23-23.1L773.23-23.1ZM790.61-29.52Q791.61-29.52 792.02-29.15 792.44-28.78 792.44-27.93L792.44-27.93 792.44-20.61 802.47-20.61Q803.3-20.61 803.66-20.23 804.01-19.85 804.01-18.95L804.01-18.95Q804.01-18.04 803.66-17.66 803.3-17.29 802.47-17.29L802.47-17.29 792.44-17.29 792.44-8.4Q792.44-5.62 793.4-4.32 794.37-3.03 796.76-3.03L796.76-3.03Q798.4-3.03 800.2-3.69 802.01-4.35 803.69-5.44L803.69-5.44Q804.04-5.69 804.45-5.69L804.45-5.69Q805.28-5.69 805.87-4.57L805.87-4.57Q806.18-3.93 806.18-3.47L806.18-3.47Q806.18-2.69 805.38-2.2L805.38-2.2Q803.48-1 801.13-0.23 798.79 0.54 796.76 0.54L796.76 0.54Q792.61 0.54 790.69-1.62 788.78-3.78 788.78-8.08L788.78-8.08 788.78-17.29 783.82-17.29Q782.99-17.29 782.64-17.66 782.28-18.04 782.28-18.95L782.28-18.95Q782.28-19.85 782.64-20.23 782.99-20.61 783.82-20.61L783.82-20.61 788.78-20.61 788.78-27.93Q788.78-28.78 789.19-29.15 789.61-29.52 790.61-29.52L790.61-29.52ZM825.27-22.56Q826.1-22.56 826.46-22.18 826.81-21.8 826.81-20.9L826.81-20.9 826.81-3.32 834.65-3.32Q835.48-3.32 835.83-2.94 836.19-2.56 836.19-1.66L836.19-1.66Q836.19-0.76 835.83-0.38 835.48 0 834.65 0L834.65 0 815.51 0Q814.68 0 814.32-0.38 813.97-0.76 813.97-1.66L813.97-1.66Q813.97-2.56 814.32-2.94 814.68-3.32 815.51-3.32L815.51-3.32 823.15-3.32 823.15-19.24 816.97-19.24Q816.14-19.24 815.79-19.62 815.44-20 815.44-20.9L815.44-20.9Q815.44-21.8 815.79-22.18 816.14-22.56 816.97-22.56L816.97-22.56 825.27-22.56ZM824.49-33.28Q825.84-33.28 826.32-32.92 826.81-32.57 826.81-31.69L826.81-31.69 826.81-28.52Q826.81-27.64 826.32-27.28 825.84-26.93 824.49-26.93L824.49-26.93Q823.15-26.93 822.66-27.28 822.17-27.64 822.17-28.52L822.17-28.52 822.17-31.69Q822.17-32.57 822.66-32.92 823.15-33.28 824.49-33.28L824.49-33.28ZM866.6-22.56Q867.43-22.56 867.79-22.18 868.14-21.8 868.14-20.9L868.14-20.9Q868.14-20 867.79-19.62 867.43-19.24 866.6-19.24L866.6-19.24 865.07-19.24 857.18-1.05Q856.84-0.22 856.17 0.16 855.5 0.54 854.3 0.54L854.3 0.54Q853.13 0.54 852.48 0.16 851.83-0.22 851.47-1.05L851.47-1.05 843.66-19.24 842.14-19.24Q841.31-19.24 840.96-19.62 840.6-20 840.6-20.9L840.6-20.9Q840.6-21.8 840.96-22.18 841.31-22.56 842.14-22.56L842.14-22.56 850.78-22.56Q851.61-22.56 851.97-22.18 852.32-21.8 852.32-20.9L852.32-20.9Q852.32-20 851.97-19.62 851.61-19.24 850.78-19.24L850.78-19.24 847.66-19.24 854.32-3.32 861.06-19.24 858.94-19.24Q858.11-19.24 857.75-19.62 857.4-20 857.4-20.9L857.4-20.9Q857.4-21.8 857.75-22.18 858.11-22.56 858.94-22.56L858.94-22.56 866.6-22.56ZM884.57-23.1Q888.11-23.1 890.61-21.67 893.12-20.24 894.46-17.71 895.8-15.19 896-11.89L896-11.89Q896-11.06 895.64-10.72 895.29-10.38 894.46-10.38L894.46-10.38 876.78-10.38Q876.95-6.74 878.94-4.87 880.93-3 884.57-3L884.57-3Q886.82-3 889.01-3.58 891.21-4.15 892.87-5.1L892.87-5.1Q893.29-5.32 893.63-5.32L893.63-5.32Q894.48-5.32 895.02-4.03L895.02-4.03Q895.24-3.52 895.24-3.1L895.24-3.1Q895.24-2.12 894.17-1.59L894.17-1.59Q892.29-0.63 889.72-0.05 887.16 0.54 884.57 0.54L884.57 0.54Q880.88 0.54 878.27-0.88 875.66-2.29 874.29-4.96 872.93-7.62 872.93-11.28L872.93-11.28Q872.93-14.77 874.41-17.46 875.9-20.14 878.54-21.62 881.18-23.1 884.57-23.1L884.57-23.1ZM884.57-19.56Q881.57-19.56 879.6-18.03 877.64-16.5 877.03-13.79L877.03-13.79 891.94-13.79Q891.43-16.6 889.59-18.08 887.74-19.56 884.57-19.56L884.57-19.56ZM945.16-28.98Q948.21-28.98 950.4-27.95 952.58-26.93 953.72-25.07 954.85-23.22 954.85-20.75L954.85-20.75Q954.85-17.97 953.05-16.04 951.24-14.11 948.09-13.4L948.09-13.4Q949.46-12.87 950.36-11.67L950.36-11.67Q951.12-10.67 951.66-9.68 952.19-8.69 952.85-7.25L952.85-7.25Q953.54-5.76 953.9-5.08L953.9-5.08Q954.85-3.32 956.1-3.32L956.1-3.32 956.78-3.32Q957.61-3.32 957.97-2.94 958.32-2.56 958.32-1.66L958.32-1.66Q958.32-0.76 957.97-0.38 957.61 0 956.78 0L956.78 0 955.03 0Q953.56 0 952.55-0.77 951.53-1.54 950.58-3.39L950.58-3.39Q950.04-4.47 949.26-6.23L949.26-6.23Q948.53-7.84 948.08-8.73 947.63-9.62 946.99-10.5L946.99-10.5Q946.26-11.52 945.23-12.05 944.21-12.57 942.77-12.57L942.77-12.57 939.45-12.57 939.45-3.32 942.62-3.32Q943.45-3.32 943.81-2.94 944.16-2.56 944.16-1.66L944.16-1.66Q944.16-0.76 943.81-0.38 943.45 0 942.62 0L942.62 0 932.81 0Q931.98 0 931.62-0.38 931.27-0.76 931.27-1.66L931.27-1.66Q931.27-2.56 931.62-2.94 931.98-3.32 932.81-3.32L932.81-3.32 935.79-3.32 935.79-25.66 932.81-25.66Q931.98-25.66 931.62-26.04 931.27-26.42 931.27-27.32L931.27-27.32Q931.27-28.22 931.62-28.6 931.98-28.98 932.81-28.98L932.81-28.98 945.16-28.98ZM939.45-25.66L939.45-15.89 944.4-15.89Q951-15.89 951-20.75L951-20.75Q951-23.1 949.34-24.38 947.68-25.66 944.65-25.66L944.65-25.66 939.45-25.66ZM974.5-23.1Q978.04-23.1 980.55-21.67 983.05-20.24 984.39-17.71 985.74-15.19 985.93-11.89L985.93-11.89Q985.93-11.06 985.58-10.72 985.22-10.38 984.39-10.38L984.39-10.38 966.72-10.38Q966.89-6.74 968.88-4.87 970.87-3 974.5-3L974.5-3Q976.75-3 978.95-3.58 981.15-4.15 982.81-5.1L982.81-5.1Q983.22-5.32 983.56-5.32L983.56-5.32Q984.42-5.32 984.95-4.03L984.95-4.03Q985.17-3.52 985.17-3.1L985.17-3.1Q985.17-2.12 984.1-1.59L984.1-1.59Q982.22-0.63 979.66-0.05 977.09 0.54 974.5 0.54L974.5 0.54Q970.82 0.54 968.21-0.88 965.59-2.29 964.23-4.96 962.86-7.62 962.86-11.28L962.86-11.28Q962.86-14.77 964.35-17.46 965.84-20.14 968.47-21.62 971.11-23.1 974.5-23.1L974.5-23.1ZM974.5-19.56Q971.5-19.56 969.54-18.03 967.57-16.5 966.96-13.79L966.96-13.79 981.88-13.79Q981.37-16.6 979.52-18.08 977.68-19.56 974.5-19.56L974.5-19.56ZM1004.36-23.1Q1008.95-23.1 1011.25-21.04 1013.54-18.99 1013.54-14.97L1013.54-14.97 1013.54-5.25Q1013.54-3.32 1015.15-3.32L1015.15-3.32 1016.01-3.32Q1016.84-3.32 1017.19-2.94 1017.54-2.56 1017.54-1.66L1017.54-1.66Q1017.54-0.76 1017.19-0.38 1016.84 0 1016.01 0L1016.01 0 1014.44 0Q1012.86 0 1011.72-0.79 1010.59-1.59 1010.24-3.13L1010.24-3.13Q1008.24-1.37 1005.91-0.42 1003.58 0.54 1000.97 0.54L1000.97 0.54Q998.5 0.54 996.61-0.31 994.72-1.15 993.64-2.76 992.57-4.37 992.57-6.59L992.57-6.59Q992.57-10.45 995.33-12.29 998.09-14.14 1002.46-14.14L1002.46-14.14Q1006.34-14.14 1009.88-12.89L1009.88-12.89 1009.88-14.97Q1009.88-17.33 1008.55-18.44 1007.22-19.56 1004.26-19.56L1004.26-19.56Q1002.43-19.56 1000.45-19.04 998.48-18.53 996.69-17.63L996.69-17.63Q996.28-17.41 995.94-17.41L995.94-17.41Q995.13-17.41 994.6-18.58L994.6-18.58Q994.33-19.17 994.33-19.56L994.33-19.56Q994.33-20.41 995.23-20.87L995.23-20.87Q997.28-21.95 999.64-22.52 1001.99-23.1 1004.36-23.1L1004.36-23.1ZM1002.48-10.69Q999.67-10.69 998.05-9.73 996.43-8.76 996.43-6.67L996.43-6.67Q996.43-4.88 997.66-3.89 998.89-2.91 1001.11-2.91L1001.11-2.91Q1005.97-2.91 1009.88-6.93L1009.88-6.93 1009.88-9.59Q1008.22-10.13 1006.31-10.41 1004.41-10.69 1002.48-10.69L1002.48-10.69ZM1034.88-32.03Q1035.71-32.03 1036.06-31.65 1036.41-31.27 1036.41-30.37L1036.41-30.37 1036.41-3.32 1044.25-3.32Q1045.08-3.32 1045.44-2.94 1045.79-2.56 1045.79-1.66L1045.79-1.66Q1045.79-0.76 1045.44-0.38 1045.08 0 1044.25 0L1044.25 0 1025.11 0Q1024.28 0 1023.93-0.38 1023.57-0.76 1023.57-1.66L1023.57-1.66Q1023.57-2.56 1023.93-2.94 1024.28-3.32 1025.11-3.32L1025.11-3.32 1032.75-3.32 1032.75-28.71 1026.09-28.71Q1025.26-28.71 1024.9-29.09 1024.55-29.47 1024.55-30.37L1024.55-30.37Q1024.55-31.27 1024.9-31.65 1025.26-32.03 1026.09-32.03L1026.09-32.03 1034.88-32.03ZM1065.1-22.56Q1065.93-22.56 1066.28-22.18 1066.64-21.8 1066.64-20.9L1066.64-20.9 1066.64-3.32 1074.47-3.32Q1075.3-3.32 1075.66-2.94 1076.01-2.56 1076.01-1.66L1076.01-1.66Q1076.01-0.76 1075.66-0.38 1075.3 0 1074.47 0L1074.47 0 1055.33 0Q1054.5 0 1054.15-0.38 1053.79-0.76 1053.79-1.66L1053.79-1.66Q1053.79-2.56 1054.15-2.94 1054.5-3.32 1055.33-3.32L1055.33-3.32 1062.97-3.32 1062.97-19.24 1056.8-19.24Q1055.97-19.24 1055.61-19.62 1055.26-20 1055.26-20.9L1055.26-20.9Q1055.26-21.8 1055.61-22.18 1055.97-22.56 1056.8-22.56L1056.8-22.56 1065.1-22.56ZM1064.32-33.28Q1065.66-33.28 1066.15-32.92 1066.64-32.57 1066.64-31.69L1066.64-31.69 1066.64-28.52Q1066.64-27.64 1066.15-27.28 1065.66-26.93 1064.32-26.93L1064.32-26.93Q1062.97-26.93 1062.49-27.28 1062-27.64 1062-28.52L1062-28.52 1062-31.69Q1062-32.57 1062.49-32.92 1062.97-33.28 1064.32-33.28L1064.32-33.28ZM1090.39-29.52Q1091.39-29.52 1091.8-29.15 1092.22-28.78 1092.22-27.93L1092.22-27.93 1092.22-20.61 1102.25-20.61Q1103.08-20.61 1103.44-20.23 1103.79-19.85 1103.79-18.95L1103.79-18.95Q1103.79-18.04 1103.44-17.66 1103.08-17.29 1102.25-17.29L1102.25-17.29 1092.22-17.29 1092.22-8.4Q1092.22-5.62 1093.18-4.32 1094.15-3.03 1096.54-3.03L1096.54-3.03Q1098.18-3.03 1099.98-3.69 1101.79-4.35 1103.47-5.44L1103.47-5.44Q1103.82-5.69 1104.23-5.69L1104.23-5.69Q1105.06-5.69 1105.65-4.57L1105.65-4.57Q1105.96-3.93 1105.96-3.47L1105.96-3.47Q1105.96-2.69 1105.16-2.2L1105.16-2.2Q1103.25-1 1100.91-0.23 1098.57 0.54 1096.54 0.54L1096.54 0.54Q1092.39 0.54 1090.47-1.62 1088.56-3.78 1088.56-8.08L1088.56-8.08 1088.56-17.29 1083.6-17.29Q1082.77-17.29 1082.42-17.66 1082.06-18.04 1082.06-18.95L1082.06-18.95Q1082.06-19.85 1082.42-20.23 1082.77-20.61 1083.6-20.61L1083.6-20.61 1088.56-20.61 1088.56-27.93Q1088.56-28.78 1088.97-29.15 1089.39-29.52 1090.39-29.52L1090.39-29.52ZM1136.41-22.56Q1137.24-22.56 1137.59-22.18 1137.94-21.8 1137.94-20.9L1137.94-20.9Q1137.94-20 1137.59-19.62 1137.24-19.24 1136.41-19.24L1136.41-19.24 1134.89-19.24 1124.91 1.22Q1123.32 4.47 1121.81 6.32 1120.29 8.18 1118.4 9.05 1116.51 9.91 1113.8 10.01L1113.8 10.01Q1112.94 10.03 1112.48 9.58 1112.02 9.13 1112.02 7.98L1112.02 7.98Q1112.02 6.4 1113.31 6.32L1113.31 6.32Q1115.65 6.2 1117.03 5.54 1118.41 4.88 1119.57 3.28 1120.73 1.68 1122.42-1.71L1122.42-1.71 1113.48-19.24 1111.94-19.24Q1111.11-19.24 1110.76-19.62 1110.41-20 1110.41-20.9L1110.41-20.9Q1110.41-21.8 1110.76-22.18 1111.11-22.56 1111.94-22.56L1111.94-22.56 1120.59-22.56Q1121.42-22.56 1121.77-22.18 1122.12-21.8 1122.12-20.9L1122.12-20.9Q1122.12-20 1121.77-19.62 1121.42-19.24 1120.59-19.24L1120.59-19.24 1117.46-19.24 1124.35-5.52 1130.91-19.24 1128.74-19.24Q1127.91-19.24 1127.56-19.62 1127.2-20 1127.2-20.9L1127.2-20.9Q1127.2-21.8 1127.56-22.18 1127.91-22.56 1128.74-22.56L1128.74-22.56 1136.41-22.56ZM1154.15-7.32Q1155.91-7.32 1156.68-6.97 1157.45-6.62 1157.45-5.79L1157.45-5.79 1157.45-1.29Q1157.45-0.46 1156.68-0.11 1155.91 0.24 1154.15 0.24L1154.15 0.24Q1152.4 0.24 1151.63-0.11 1150.86-0.46 1150.86-1.29L1150.86-1.29 1150.86-5.79Q1150.86-6.62 1151.63-6.97 1152.4-7.32 1154.15-7.32L1154.15-7.32Z" opacity="1" transform="matrix(1,0,0,1,0,0)" fill="#cb0003" class="slogan-text-1" data-fill-palette-color="quaternary" id="text-1"></path></svg></g></svg></g></svg></g></svg></g><g></g></svg></g></svg></g><defs></defs></svg><rect width="395.52" height="238.89871846323982" fill="none" stroke="none" visibility="hidden"></rect></g></svg></g></svg>